<svg xmlns="http://www.w3.org/2000/svg" width="306" height="38" viewBox="0 0 306 38">

<style type="text/css">
	.st0{fill:#FF780C;}
	.st1{fill:#47283A;}
</style>
<path class="st0" d="M10.9,9.3C5.5,9.3,0,14.6,0,21.6c0,4.7,2.3,7.8,6.9,7.8c3.2,0,6.1-1.7,7.7-4.4c-0.3-0.6-0.9-1.1-1.5-1.4
	c-1,1.4-2.6,2.3-4.3,2.4c-2.1,0-3.3-1.4-3.4-4.5c4.3-0.5,10.9-2.3,10.9-7.4C16.3,11.4,14.4,9.3,10.9,9.3z M5.5,19.6
	C5.9,15.8,7.9,12,10,12c1.1,0,1.7,0.8,1.7,2.2C11.7,16.8,9.6,18.9,5.5,19.6z"/>
<path class="st0" d="M44.8,25.9c0.2-0.9,0.3-1.8,0.5-2.6c0.1-0.6,0.2-1.1,0.3-1.7c0.6-3.5,1.2-6.8,1.2-8.4c0-2.2-1.3-3.7-3.5-3.7
	c-2.9,0-5.5,2.5-7,5.7c0.1-0.7,0.2-1.3,0.2-2c0-2.2-1.3-3.7-3.5-3.7c-3,0-5.8,2.6-7.3,6l0.9-5.3l-1.1-0.6c-2.3-0.1-4.7,0.4-6.8,1.3
	c-0.1,0.4-0.2,0.8-0.2,1.2c0,0.3,0.1,0.6,0.2,0.9l2.9-0.2L18.7,29c0.8,0.1,1.6,0.2,2.5,0.2c0.8,0,1.7-0.1,2.5-0.2l1.2-6.7
	c0.9-4.9,3.5-8.7,5.4-8.7c0.8,0,1.1,0.5,1.1,1.4c0,0.8-0.5,3.7-1,6.5c-0.2,0.7-0.3,1.4-0.4,2L29,29c0.8,0.1,1.7,0.2,2.5,0.2
	c0.8,0,1.6-0.1,2.5-0.2l1.3-7c0.8-4.7,3.5-8.4,5.4-8.4c0.8,0,1.1,0.5,1.1,1.5c-0.2,1.7-0.5,3.4-0.8,5.1l-0.2,1.4
	c-0.3,1.6-0.6,3.3-0.8,5c0,1.9,1.3,2.9,3.1,2.9c2-0.1,3.9-1,5.2-2.5c0-0.6-0.3-1.2-0.8-1.6L44.8,25.9z"/>
<path class="st0" d="M61.2,9.3c-5.7,0-11,5.3-11,12.5c0,4.5,2.6,7.6,6.8,7.6c5.7,0,11-5.4,11-12.4C67.9,12.4,65.4,9.3,61.2,9.3z
	 M57.8,26.7c-1.5,0-2.3-1.4-2.3-4.1c0-5.5,2.2-10.7,4.7-10.7c1.5,0,2.3,1.4,2.3,4.1C62.6,21.6,60.4,26.7,57.8,26.7L57.8,26.7z"/>
<path class="st0" d="M80.3,4.8l-1.1-0.6c-1.9,0-3.5,1.1-4.3,2.8l-0.5,3l-3.6,0.4c-0.2,0.6-0.4,1.2-0.4,1.8c0.3,0.3,1.7,0.6,3.5,0.7
	L72.6,20c-0.4,2.1-0.7,4.1-0.9,6.2c0,2,1.4,3.1,3.4,3.1c2.5,0,5-1.1,6.6-3c0-0.6-0.3-1.2-0.7-1.7l-4.4,1l2.2-12.8h4.3
	c0.3-0.9,0.5-1.9,0.6-2.8l-4.5,0.2L80.3,4.8z"/>
<path class="st0" d="M92.1,1.2c-1.9,0-3.4,1.5-3.5,3.4C88.6,6,89.6,7,91.3,7c1.9,0,3.4-1.5,3.4-3.4C94.8,2.1,93.7,1.2,92.1,1.2z"/>
<path class="st0" d="M90.8,25.9l2.8-15.8l-1.1-0.6c-2.4-0.1-4.9,0.4-7.1,1.3c-0.1,0.4-0.2,0.7-0.2,1.1c0,0.3,0.1,0.7,0.2,1l2.9-0.2
	l-1.4,8c-0.1,0.5-0.2,0.8-0.2,1.2c-0.1,0.3-0.1,0.7-0.2,1c-0.3,1.2-0.4,2.4-0.5,3.6c0,1.9,1.3,2.9,3.1,2.9c2-0.1,3.9-1,5.2-2.5
	c0-0.6-0.3-1.2-0.8-1.6L90.8,25.9z"/>
<path class="st0" d="M107.3,9.3c-5.7,0-11,5.3-11,12.5c0,4.5,2.6,7.6,6.8,7.6c5.7,0,11-5.4,11-12.4C114.1,12.4,111.5,9.3,107.3,9.3z
	 M104,26.7c-1.5,0-2.3-1.4-2.3-4.1c0-5.5,2.2-10.7,4.7-10.7c1.5,0,2.3,1.4,2.3,4.1C108.7,21.6,106.5,26.7,104,26.7z"/>
<path class="st0" d="M147.2,15.9c-5.1,4-12.5,9.6-14.3,10c0.2-1.3,0.5-2.7,0.7-4c0.1-0.4,0.2-0.8,0.2-1.2c0.5-2.5,0.9-5,1.1-7.5
	c0-2.2-1.2-3.7-3.5-3.7c-3.1,0-6,2.6-7.5,6l0.9-5.4l-1.1-0.6c-2.3-0.1-4.7,0.4-6.8,1.3c-0.1,0.4-0.2,0.8-0.2,1.2
	c0,0.3,0.1,0.6,0.2,0.9l2.9-0.2L116.9,29c0.8,0.1,1.6,0.2,2.5,0.2c0.8,0,1.7-0.1,2.5-0.2l1.2-6.6c0.8-4.9,3.8-8.9,5.7-8.9
	c0.7,0,1.1,0.5,1.1,1.4c-0.2,1.7-0.5,3.4-0.9,5.1c-0.5,2.1-0.8,4.3-1,6.5c0,1.9,1.4,2.9,3.1,2.9c0.9,0,1.7-0.2,2.5-0.6
	c0,0,0.1,0,0.1,0c0.3-0.1,0.5-0.3,0.8-0.4c0.1-0.1,0.2-0.1,0.3-0.2c2.5-1.6,8.2-6.2,12.5-9.6V15.9z"/>
<path class="st0" d="M295.5,7.7c0-3.2,2.4-5.2,5.3-5.2c2.7-0.2,5,1.9,5.2,4.6c0,0.2,0,0.3,0,0.5c0,3.2-2.3,5.2-5.3,5.2
	c-2.7,0.1-5-1.9-5.2-4.6C295.5,8,295.5,7.8,295.5,7.7z M304.7,7.6c0-2.6-1.7-4.1-4-4.1c-2.3,0-4,1.5-4,4.1c0,2.6,1.6,4.1,4,4.1
	C303.1,11.8,304.7,10.2,304.7,7.6z M301.6,9.6c-0.2-0.3-0.4-0.7-0.5-1.1l-0.2-0.4h-0.2c-0.1,0-0.2,0-0.4,0v1.3l0.6,0.1
	c0,0.2,0,0.4-0.1,0.6h-2.5c0-0.2,0-0.3,0-0.5c0.2-0.1,0.4-0.2,0.7-0.2V5.6l-0.7-0.1c0-0.2,0-0.4,0.1-0.7h2.5c1.4,0,2.2,0.6,2.2,1.6
	c0,0.6-0.4,1.2-0.9,1.4c0.4,0.8,0.8,1.5,1,1.6l0.4,0c0.1,0.1,0.1,0.3,0.1,0.5c-0.3,0.3-0.7,0.4-1,0.4
	C302.2,10.3,301.8,10.1,301.6,9.6L301.6,9.6z M301.7,6.5c0-0.5-0.3-0.8-0.8-0.9c-0.1,0-0.1,0-0.2,0h-0.4v1.8c0.1,0,0.3,0,0.4,0
	c0.5,0.1,0.9-0.3,0.9-0.7C301.7,6.6,301.7,6.6,301.7,6.5L301.7,6.5z"/>
<path class="st1" d="M187,25.7c0.3,0.6,0.4,1.2,0.5,1.8c-1.1,1.2-2.6,1.8-4.2,1.7c-1.8,0.1-3.3-1-3.7-2.8c-1.4,1.9-3.7,3-6,2.9
	c-3.2,0-5.3-2-5.3-5.2c0-3.8,2.9-6,9.1-6.5l1.8-0.1v-2.2c0-2.2-0.9-3.5-3.4-3.5c-0.6,0-1.3,0-1.9,0.1l-0.8,4.1
	c-0.3,0-0.6,0.1-0.9,0.1c-1.1,0-2.3-0.3-2.8-0.9c-0.1-1-0.2-2-0.1-2.9c1.1-1.3,4.1-3.2,8.2-3.2c5,0,6.9,3,6.9,6.6v8.4
	c-0.1,0.6,0,1.3,0.3,1.9L187,25.7z M179.2,24.4V20l-1.7,0.2c-2.8,0.3-4.3,1.4-4.3,3.3c-0.1,1.3,0.8,2.4,2.1,2.5c0.1,0,0.2,0,0.3,0
	C177,25.9,178.3,25.3,179.2,24.4z"/>
<path class="st1" d="M211.9,26.6c0.1,0.8,0,1.6-0.3,2.4h-10c-0.1-0.6-0.2-1.2-0.2-1.7c0.3-0.5,1.2-1,2.5-1.1v-9.1
	c0-2.6-1-4.1-3.1-4.1c-1.5,0.1-2.9,0.7-4,1.8v11.5l2.5,0.2c0.1,0.8,0,1.6-0.2,2.4h-10.1c-0.1-0.6-0.2-1.2-0.2-1.7
	c0.3-0.5,1.4-1,2.8-1.1V12.9l-2.7-0.5c0-0.3,0-0.5,0-0.8c0-0.5,0-0.9,0.2-1.4c2.1-0.6,4.2-0.9,6.3-0.8l0.9,0.2v2.9
	c1.6-2.1,4.1-3.3,6.7-3.3c3.6,0,5.9,2.6,5.9,7.5v9.7L211.9,26.6z"/>
<path class="st1" d="M234.8,25.9c0.3,0.6,0.4,1.3,0.4,1.9c-0.5,0.8-2.2,1.6-4.1,1.6c-2.2,0-3.5-1-4.9-3.4c-1-1.7-1.9-3.5-2.6-5.3
	l-2.5-0.3v6l2.5,0.2c0.1,0.8,0,1.6-0.2,2.4h-10.1c-0.1-0.6-0.2-1.2-0.2-1.7c0.3-0.5,1.4-1,2.8-1.1V3.4L213.2,3c0-0.3,0-0.5,0-0.8
	c0-0.5,0-0.9,0.2-1.4c2.2-0.6,4.5-0.9,6.8-0.8l0.9,0.2V18l2.9-0.3l3.5-5.3l-2.2-0.2c0-0.2,0-0.5,0-0.7c0-0.6,0.1-1.2,0.4-1.7h8.2
	c0.1,0.6,0.2,1.2,0.2,1.7c-0.3,0.5-1.4,1-2.9,1.1l-3.7,5.3c0.3,0.5,0.6,1.1,0.9,1.6c1.9,3.3,3.8,6.5,4.6,6.6L234.8,25.9z"/>
<path class="st1" d="M236.7,27.3c0.3-0.5,1.4-1,2.8-1.1V12.9l-2.7-0.5c0-0.3,0-0.5,0-0.8c0-0.5,0-0.9,0.2-1.4
	c2.2-0.6,4.5-0.9,6.8-0.8l0.9,0.2v16.8l2.8,0.2c0.1,0.8,0,1.6-0.3,2.4h-10.3C236.7,28.5,236.7,27.9,236.7,27.3z M238.8,4
	c0.1-1.8,1.6-3.3,3.4-3.2c1.4-0.1,2.7,1,2.8,2.4c0,0.1,0,0.2,0,0.3c0,1.8-1.4,3.3-3.2,3.3C239.9,6.7,238.8,5.7,238.8,4z"/>
<path class="st1" d="M272.6,26.6c0.1,0.8,0,1.6-0.3,2.4h-10c-0.1-0.6-0.2-1.2-0.2-1.7c0.3-0.5,1.2-1,2.5-1.1v-9.1
	c0-2.6-1-4.1-3.1-4.1c-1.5,0.1-2.9,0.7-4,1.8v11.5l2.5,0.2c0.1,0.8,0,1.6-0.2,2.4h-10.1c-0.1-0.6-0.2-1.2-0.2-1.7
	c0.3-0.5,1.4-1,2.8-1.1V12.9l-2.7-0.5c0-0.3,0-0.5,0-0.8c0-0.5,0-0.9,0.2-1.4c2.1-0.6,4.2-0.9,6.3-0.8l0.9,0.2v2.9
	c1.6-2.1,4.1-3.3,6.7-3.3c3.6,0,5.9,2.6,5.9,7.5v9.7L272.6,26.6z"/>
<path class="st1" d="M293,11.2c0,0.5-0.1,0.9-0.2,1.4h-3.2c0.6,1,0.9,2.2,0.9,3.4c0,4-3.3,7.3-8.6,7.3c-0.8,0-1.5-0.1-2.3-0.2
	l-0.5,1.8c0.6,0.5,2.7,0.8,6.2,1.1c4.4,0.5,7.2,1.5,7.2,5.4c0,5.1-5.7,6.7-10.5,6.7c-5.1,0-8.8-1.8-8.8-5.3c0-1.9,1.2-3.7,3-4.4
	c-0.9-0.8-1.3-2-1.1-3.1l2.3-3.1c-1.9-1.2-3-3.2-3-5.4c0-4,3.3-7.4,8.5-7.4c1.7,0,3.5,0.4,4.9,1.4c1.4-0.8,2.9-1.4,4.5-1.7
	C292.8,9.6,293,10.4,293,11.2z M278.1,29.4c-0.5,0.7-0.8,1.6-0.9,2.5c0,2.2,2.1,3.4,5.8,3.4c2.6,0,4.8-0.8,4.8-2.6
	c0-1.4-1.2-1.8-5.4-2.4C280.9,30.2,279.5,29.8,278.1,29.4z M285.9,16.5c0-2.6-1.4-4.6-3.5-4.6c-2,0-3.1,1.7-3.1,4.1
	c0,2.6,1.4,4.7,3.4,4.7C284.5,20.7,285.9,19.1,285.9,16.5z"/>
<path class="st1" d="M165.7,18.6c0,6.9-4.9,10.9-10.3,10.9c-2.8,0-6.7-0.7-8.3-1.5l0.2-2.6V3.4L144.5,3c0-0.3,0-0.5,0-0.8
	c0-0.5,0-0.9,0.2-1.4c2.2-0.6,4.4-0.9,6.7-0.8l1,0.2v11.6c1.4-1.7,3.6-2.6,5.8-2.6C162.4,9.3,165.7,12.9,165.7,18.6z M160.4,20.1
	c0-4.8-1.8-7.1-4.5-7.1c-1.3,0.1-2.5,0.6-3.5,1.4v10.5c0.9,1.2,2.3,1.9,3.9,1.8C158.6,26.8,160.4,24.7,160.4,20.1z"/>
</svg>
