<svg xmlns="http://www.w3.org/2000/svg" viewBox="0 0 710 310"><path d="M643.27535,108.51418A25.92,25.92,0,0,1,650,126.69772a28.70474,28.70474,0,0,1-4.39013,15.43971q-4.39556,7.06875-13.38228,11.32124-8.98946,4.2543-22.02672,4.25429a75.54062,75.54062,0,0,1-19.96747-2.675,51.42367,51.42367,0,0,1-16.67489-7.61753l8.64624-17.01718a41.87164,41.87164,0,0,0,12.69406,6.38054,48.90167,48.90167,0,0,0,14.7533,2.26569q8.37,0,13.17582-3.22558a10.35732,10.35732,0,0,0,4.80306-9.12618q0-11.80119-17.97888-11.803l-10.15489-14.68447L619.26,77.84124H578.36157V60h67.2483V74.40918L623.92546,99.11271Q636.5498,101.172,643.27535,108.51418Z" fill="#ec1e79"/><polygon points="650 250 460 250 460 60 560.546 60 560.546 77.87 477.82 77.87 477.851 232.162 632.149 232.162 632.117 170.084 650 170.084 650 250" fill="#303"/><path d="M72.40248,137.30975a41.41142,41.41142,0,0,1-13.71838-6.44524l6.06026-13.44518a41.07169,41.07169,0,0,0,11.78936,5.84087,44.30534,44.30534,0,0,0,13.66871,2.20223q7.60017,0,11.24295-2.256a6.824,6.824,0,0,0,3.6345-6.00645,5.73836,5.73836,0,0,0-2.14427-4.57417,16.38829,16.38829,0,0,0-5.51385-2.92251q-3.36543-1.099-9.09039-2.42576a125.46689,125.46689,0,0,1-14.43866-4.18506,23.45354,23.45354,0,0,1-9.64509-6.72258Q60.224,91.73772,60.224,84.0258a21.51728,21.51728,0,0,1,3.6345-12.17848,24.48666,24.48666,0,0,1,10.96974-8.65161Q82.1552,59.99794,92.73582,60a59.2889,59.2889,0,0,1,14.43866,1.76344,42.70741,42.70741,0,0,1,12.34406,5.06677L114.0047,80.38715a43.00854,43.00854,0,0,0-21.37651-6.06026q-7.50081,0-11.07736,2.42576A7.38978,7.38978,0,0,0,77.966,83.14408q0,3.96773,4.13952,5.89468A64.53455,64.53455,0,0,0,94.72279,92.843,125.96455,125.96455,0,0,1,109.16145,97.028a23.94976,23.94976,0,0,1,9.63681,6.615q4.02363,4.52035,4.02362,12.23229a21.01325,21.01325,0,0,1-3.69245,12.06671,24.76512,24.76512,0,0,1-11.06909,8.65161q-7.389,3.19777-17.96553,3.19571A63.04116,63.04116,0,0,1,72.40248,137.30975Z" fill="#303"/><path d="M185.64594,64.73975a25.49929,25.49929,0,0,1,15.70535,24.57636,26.81272,26.81272,0,0,1-4.07329,14.82363,26.04182,26.04182,0,0,1-11.63206,9.69891,43.48119,43.48119,0,0,1-17.79995,3.36129H152.30621v21.26887H134.45659V61.32051H167.846A42.861,42.861,0,0,1,185.64594,64.73975Zm-6.557,34.44084q4.18506-3.47719,4.1892-9.86448,0-6.50112-4.1892-9.97626-4.18506-3.471-12.22815-3.46892H152.30621v26.77858h14.55457Q174.89559,102.64951,179.08893,99.18059Z" fill="#303"/><path d="M215.96216,61.32051h17.84962v77.1483H215.96216Z" fill="#303"/><path d="M301.26119,138.46881,286.38374,116.9764H269.95811v21.49241H252.10848V61.32051h33.3894a42.861,42.861,0,0,1,17.79995,3.41924,25.49928,25.49928,0,0,1,15.70536,24.57636,25.12442,25.12442,0,0,1-15.87094,24.357l17.30321,24.79575Zm-4.52036-59.129q-4.18506-3.471-12.22816-3.46892H269.95811v26.89035h14.55456q8.03482,0,12.22816-3.52687,4.18506-3.52687,4.1892-9.9183Q300.93,82.815,296.74083,79.33985Z" fill="#303"/><path d="M333.11069,61.32051h17.84962v77.1483H333.11069Z" fill="#303"/><path d="M385.24385,75.87093H360.55573V61.32051h67.23415V75.87093H403.10176v62.59788H385.24385Z" fill="#303"/><path d="M135.40051,166.39652v82.19656H116.38288V214.89324H79.03564v33.69984H60.018V166.39652H79.03564v32.4076h37.34724v-32.4076Z" fill="#ec1e79"/><path d="M175.613,244.48259a40.89611,40.89611,0,0,1-16.08913-15.207,43.71232,43.71232,0,0,1,0-43.56149A40.95809,40.95809,0,0,1,175.613,170.507a50.88274,50.88274,0,0,1,46.08865,0,41.92039,41.92039,0,0,1,0,73.97558,50.88274,50.88274,0,0,1-46.08865,0Zm36.227-14.02947a24.07849,24.07849,0,0,0,9.21773-9.33681,29.42223,29.42223,0,0,0,0-27.243,24.03749,24.03749,0,0,0-9.21773-9.3324,27.50952,27.50952,0,0,0-26.30361,0,23.978,23.978,0,0,0-9.21773,9.3324,29.35361,29.35361,0,0,0,0,27.243,24.01885,24.01885,0,0,0,9.21773,9.33681,27.54139,27.54139,0,0,0,26.30361,0Z" fill="#ec1e79"/><path d="M281.56553,244.53993a40.7189,40.7189,0,0,1-15.97445-15.1453,44.15966,44.15966,0,0,1,0-43.79965,40.71893,40.71893,0,0,1,15.97445-15.14531,47.38983,47.38983,0,0,1,22.837-5.46007,47.95022,47.95022,0,0,1,19.31754,3.75766,38.72149,38.72149,0,0,1,14.50138,10.80106l-12.2168,11.273a26.2606,26.2606,0,0,0-20.66712-9.6279,27.435,27.435,0,0,0-13.6193,3.34749,23.74026,23.74026,0,0,0-9.3324,9.3324,29.35361,29.35361,0,0,0,0,27.243,23.77981,23.77981,0,0,0,9.3324,9.33681,27.47945,27.47945,0,0,0,13.6193,3.34308q12.33147,0,20.66712-9.74256l12.2168,11.26856a38.07187,38.07187,0,0,1-14.56313,10.92455A48.417,48.417,0,0,1,304.27908,250,47.14759,47.14759,0,0,1,281.56553,244.53993Z" fill="#ec1e79"/><path d="M427.78988,166.39652v82.19656H408.77225V214.89324H371.425v33.69984H352.40737V166.39652H371.425v32.4076h37.34724v-32.4076Z" fill="#ec1e79"/></svg>