<svg xmlns="http://www.w3.org/2000/svg" width="250px" height="250px" viewBox="0 0 300 300" preserveAspectRatio="none" fill="none">
<path d="M45.5 82.5L112 82.5L112 297.804" stroke="#2D7D88" stroke-width="5"/>
<path d="M194 82.3916L126 82.3916L126 298" stroke="#9B4578" stroke-width="5"/>
<path d="M222 23.5L119.169 23.5L119.169 298" stroke="#9B4578" stroke-width="5"/>
<path d="M42 150.464L104.5 150.464L104.5 223.464L104.5 297.964" stroke="#2D7D88" stroke-width="5"/>
<path d="M35 225.51L97.5 225.51L97.5 259.464L97.5 297.964" stroke="#2D7D88" stroke-width="5"/>
<path d="M184 81C184 91.4934 175.493 100 165 100C154.507 100 146 91.4934 146 81C146 70.5066 154.507 62 165 62C175.493 62 184 70.5066 184 81Z" fill="#CCCCCC"/>
<circle cx="72" cy="80.4644" r="19" fill="#CCCCCC"/>
<circle cx="23.5" cy="80.9644" r="22.5" fill="#2D7D88"/>
<path d="M236 81.304C236 93.7304 225.926 103.804 213.5 103.804C201.074 103.804 191 93.7304 191 81.304C191 68.8776 201.074 58.804 213.5 58.804C225.926 58.804 236 68.8776 236 81.304Z" fill="#9B4578"/>
<path d="M46 150.964C46 163.391 35.9264 173.464 23.5 173.464C11.0736 173.464 1 163.391 1 150.964C1 138.538 11.0736 128.464 23.5 128.464C35.9264 128.464 46 138.538 46 150.964Z" fill="#2D7D88"/>
<circle cx="23.5" cy="226.964" r="22.5" fill="#2D7D88"/>
<circle cx="72" cy="150.464" r="19" fill="#CCCCCC"/>
<circle cx="72" cy="225.464" r="19" fill="#CCCCCC"/>
<path d="M236 23.5C236 35.9264 225.926 46 213.5 46C201.074 46 191 35.9264 191 23.5C191 11.0736 201.074 1 213.5 1C225.926 1 236 11.0736 236 23.5Z" fill="#9B4578"/>
<circle cx="165" cy="23" r="19" fill="#CCCCCC"/>
</svg>
